<svg xmlns="http://www.w3.org/2000/svg" version="1.1" xmlns:xlink="http://www.w3.org/1999/xlink" xmlns:svgjs="http://svgjs.dev/svgjs" width="1440" height="560" preserveAspectRatio="none" viewBox="0 0 1440 560"><g mask="url(&quot;#SvgjsMask1000&quot;)" fill="none"><rect width="1440" height="560" x="0" y="0" fill="#1e3266"></rect><path d="M1512 560L0 560 L0 298.32Q64.36 242.68, 120 307.04Q181.75 296.8, 192 358.55Q243.79 290.34, 312 342.13Q324.78 282.91, 384 295.7Q428 267.7, 456 311.71Q517.57 301.27, 528 362.84Q548.61 311.45, 600 332.06Q643.37 303.43, 672 346.8Q683.26 286.06, 744 297.32Q772.83 254.15, 816 282.99Q866.97 261.96, 888 312.93Q951.34 304.27, 960 367.61Q983.05 270.66, 1080 293.71Q1147.17 240.88, 1200 308.05Q1292.59 280.64, 1320 373.23Q1337.36 270.59, 1440 287.95Q1484.35 260.29, 1512 304.64z" fill="#182f5d"></path><path d="M1488 560L0 560 L0 359.01Q100.76 339.77, 120 440.53Q125.25 373.77, 192 379.02Q237.67 304.69, 312 350.36Q355.2 321.56, 384 364.76Q473.94 334.7, 504 424.65Q572.22 372.87, 624 441.09Q624.25 369.35, 696 369.6Q784.35 337.95, 816 426.3Q853.3 343.61, 936 380.91Q963.84 336.75, 1008 364.59Q1068.88 353.46, 1080 414.34Q1120.63 334.98, 1200 375.61Q1243.68 347.3, 1272 390.98Q1329.77 376.75, 1344 434.52Q1372.98 391.5, 1416 420.48Q1437.4 369.88, 1488 391.28z" fill="#25467d"></path><path d="M1488 560L0 560 L0 433.89Q33.74 395.63, 72 429.36Q128.08 413.44, 144 469.52Q187.71 441.23, 216 484.93Q267.48 464.41, 288 515.9Q291.9 447.8, 360 451.71Q427.95 399.66, 480 467.62Q502.66 418.28, 552 440.94Q582.89 399.84, 624 430.73Q681.22 415.95, 696 473.16Q752.82 457.98, 768 514.8Q792.62 419.42, 888 444.04Q918.34 402.38, 960 432.73Q1012.11 412.84, 1032 464.94Q1089.55 450.49, 1104 508.04Q1136.62 420.65, 1224 453.27Q1290.51 399.78, 1344 466.29Q1387.4 437.7, 1416 481.1Q1421.83 414.93, 1488 420.76z" fill="#356cb1"></path><path d="M1560 560L0 560 L0 524.34Q58.18 462.52, 120 520.69Q177.75 506.44, 192 564.19Q199.36 499.55, 264 506.9Q291.8 462.7, 336 490.5Q412.2 446.7, 456 522.9Q539.76 486.66, 576 570.42Q628 502.42, 696 554.43Q728 466.43, 816 498.43Q895.88 458.31, 936 538.19Q966.44 496.63, 1008 527.08Q1089.1 488.18, 1128 569.28Q1181.19 502.47, 1248 555.66Q1258.53 494.18, 1320 504.71Q1385.74 450.45, 1440 516.19Q1509.39 465.59, 1560 534.98z" fill="white"></path></g><defs><mask id="SvgjsMask1000"><rect width="1440" height="560" fill="#ffffff"></rect></mask></defs></svg>