<svg xmlns="http://www.w3.org/2000/svg" version="1.1" xmlns:xlink="http://www.w3.org/1999/xlink" xmlns:svgjs="http://svgjs.dev/svgjs" width="1411" height="550" preserveAspectRatio="none" viewBox="0 0 1411 550"><g mask="url(&quot;#SvgjsMask1822&quot;)" fill="none"><path d="M22.14 234.15L95.75 276.65L95.75 361.65L22.14 404.15L-51.47 361.65L-51.47 276.65zM22.14 489.15L95.75 531.65L95.75 616.65L22.14 659.15L-51.47 616.65L-51.47 531.65zM169.37 234.15L242.98 276.65L242.98 361.65L169.37 404.15L95.75 361.65L95.75 276.65zM242.98 361.65L316.6 404.15L316.6 489.15L242.98 531.65L169.37 489.15L169.37 404.15zM169.37 489.15L242.98 531.65L242.98 616.65L169.37 659.15L95.75 616.65L95.75 531.65zM316.6 -20.85L390.21 21.65L390.21 106.65L316.6 149.15L242.98 106.65L242.98 21.65zM390.21 106.65L463.83 149.15L463.83 234.15L390.21 276.65L316.6 234.15L316.6 149.15zM684.67 106.65L758.28 149.15L758.28 234.15L684.67 276.65L611.05 234.15L611.05 149.15zM611.05 489.15L684.67 531.65L684.67 616.65L611.05 659.15L537.44 616.65L537.44 531.65zM758.28 234.15L831.9 276.65L831.9 361.65L758.28 404.15L684.67 361.65L684.67 276.65zM758.28 489.15L831.9 531.65L831.9 616.65L758.28 659.15L684.67 616.65L684.67 531.65zM905.51 -20.85L979.13 21.65L979.13 106.65L905.51 149.15L831.9 106.65L831.9 21.65zM979.13 106.65L1052.74 149.15L1052.74 234.15L979.13 276.65L905.51 234.15L905.51 149.15zM905.51 234.15L979.13 276.65L979.13 361.65L905.51 404.15L831.9 361.65L831.9 276.65zM979.13 361.65L1052.74 404.15L1052.74 489.15L979.13 531.65L905.51 489.15L905.51 404.15zM1052.74 234.15L1126.35 276.65L1126.35 361.65L1052.74 404.15L979.13 361.65L979.13 276.65zM1052.74 489.15L1126.35 531.65L1126.35 616.65L1052.74 659.15L979.13 616.65L979.13 531.65zM1199.97 234.15L1273.58 276.65L1273.58 361.65L1199.97 404.15L1126.35 361.65L1126.35 276.65zM1273.58 361.65L1347.2 404.15L1347.2 489.15L1273.58 531.65L1199.97 489.15L1199.97 404.15zM1199.97 489.15L1273.58 531.65L1273.58 616.65L1199.97 659.15L1126.35 616.65L1126.35 531.65zM1420.81 361.65L1494.43 404.15L1494.43 489.15L1420.81 531.65L1347.2 489.15L1347.2 404.15zM1347.2 489.15L1420.81 531.65L1420.81 616.65L1347.2 659.15L1273.58 616.65L1273.58 531.65z" stroke="rgba(66, 68, 90, 1)" stroke-width="2"></path><path d="M13.64 234.15 a8.5 8.5 0 1 0 17 0 a8.5 8.5 0 1 0 -17 0zM87.25 276.65 a8.5 8.5 0 1 0 17 0 a8.5 8.5 0 1 0 -17 0zM87.25 361.65 a8.5 8.5 0 1 0 17 0 a8.5 8.5 0 1 0 -17 0zM13.64 404.15 a8.5 8.5 0 1 0 17 0 a8.5 8.5 0 1 0 -17 0zM-59.97 361.65 a8.5 8.5 0 1 0 17 0 a8.5 8.5 0 1 0 -17 0zM-59.97 276.65 a8.5 8.5 0 1 0 17 0 a8.5 8.5 0 1 0 -17 0zM13.64 489.15 a8.5 8.5 0 1 0 17 0 a8.5 8.5 0 1 0 -17 0zM87.25 531.65 a8.5 8.5 0 1 0 17 0 a8.5 8.5 0 1 0 -17 0zM87.25 616.65 a8.5 8.5 0 1 0 17 0 a8.5 8.5 0 1 0 -17 0zM13.64 659.15 a8.5 8.5 0 1 0 17 0 a8.5 8.5 0 1 0 -17 0zM-59.97 616.65 a8.5 8.5 0 1 0 17 0 a8.5 8.5 0 1 0 -17 0zM-59.97 531.65 a8.5 8.5 0 1 0 17 0 a8.5 8.5 0 1 0 -17 0zM160.87 234.15 a8.5 8.5 0 1 0 17 0 a8.5 8.5 0 1 0 -17 0zM234.48 276.65 a8.5 8.5 0 1 0 17 0 a8.5 8.5 0 1 0 -17 0zM234.48 361.65 a8.5 8.5 0 1 0 17 0 a8.5 8.5 0 1 0 -17 0zM160.87 404.15 a8.5 8.5 0 1 0 17 0 a8.5 8.5 0 1 0 -17 0zM308.1 404.15 a8.5 8.5 0 1 0 17 0 a8.5 8.5 0 1 0 -17 0zM308.1 489.15 a8.5 8.5 0 1 0 17 0 a8.5 8.5 0 1 0 -17 0zM234.48 531.65 a8.5 8.5 0 1 0 17 0 a8.5 8.5 0 1 0 -17 0zM160.87 489.15 a8.5 8.5 0 1 0 17 0 a8.5 8.5 0 1 0 -17 0zM234.48 616.65 a8.5 8.5 0 1 0 17 0 a8.5 8.5 0 1 0 -17 0zM160.87 659.15 a8.5 8.5 0 1 0 17 0 a8.5 8.5 0 1 0 -17 0zM308.1 -20.85 a8.5 8.5 0 1 0 17 0 a8.5 8.5 0 1 0 -17 0zM381.71 21.65 a8.5 8.5 0 1 0 17 0 a8.5 8.5 0 1 0 -17 0zM381.71 106.65 a8.5 8.5 0 1 0 17 0 a8.5 8.5 0 1 0 -17 0zM308.1 149.15 a8.5 8.5 0 1 0 17 0 a8.5 8.5 0 1 0 -17 0zM234.48 106.65 a8.5 8.5 0 1 0 17 0 a8.5 8.5 0 1 0 -17 0zM234.48 21.65 a8.5 8.5 0 1 0 17 0 a8.5 8.5 0 1 0 -17 0zM455.33 149.15 a8.5 8.5 0 1 0 17 0 a8.5 8.5 0 1 0 -17 0zM455.33 234.15 a8.5 8.5 0 1 0 17 0 a8.5 8.5 0 1 0 -17 0zM381.71 276.65 a8.5 8.5 0 1 0 17 0 a8.5 8.5 0 1 0 -17 0zM308.1 234.15 a8.5 8.5 0 1 0 17 0 a8.5 8.5 0 1 0 -17 0zM676.17 106.65 a8.5 8.5 0 1 0 17 0 a8.5 8.5 0 1 0 -17 0zM749.78 149.15 a8.5 8.5 0 1 0 17 0 a8.5 8.5 0 1 0 -17 0zM749.78 234.15 a8.5 8.5 0 1 0 17 0 a8.5 8.5 0 1 0 -17 0zM676.17 276.65 a8.5 8.5 0 1 0 17 0 a8.5 8.5 0 1 0 -17 0zM602.55 234.15 a8.5 8.5 0 1 0 17 0 a8.5 8.5 0 1 0 -17 0zM602.55 149.15 a8.5 8.5 0 1 0 17 0 a8.5 8.5 0 1 0 -17 0zM602.55 489.15 a8.5 8.5 0 1 0 17 0 a8.5 8.5 0 1 0 -17 0zM676.17 531.65 a8.5 8.5 0 1 0 17 0 a8.5 8.5 0 1 0 -17 0zM676.17 616.65 a8.5 8.5 0 1 0 17 0 a8.5 8.5 0 1 0 -17 0zM602.55 659.15 a8.5 8.5 0 1 0 17 0 a8.5 8.5 0 1 0 -17 0zM528.94 616.65 a8.5 8.5 0 1 0 17 0 a8.5 8.5 0 1 0 -17 0zM528.94 531.65 a8.5 8.5 0 1 0 17 0 a8.5 8.5 0 1 0 -17 0zM823.4 276.65 a8.5 8.5 0 1 0 17 0 a8.5 8.5 0 1 0 -17 0zM823.4 361.65 a8.5 8.5 0 1 0 17 0 a8.5 8.5 0 1 0 -17 0zM749.78 404.15 a8.5 8.5 0 1 0 17 0 a8.5 8.5 0 1 0 -17 0zM676.17 361.65 a8.5 8.5 0 1 0 17 0 a8.5 8.5 0 1 0 -17 0zM749.78 489.15 a8.5 8.5 0 1 0 17 0 a8.5 8.5 0 1 0 -17 0zM823.4 531.65 a8.5 8.5 0 1 0 17 0 a8.5 8.5 0 1 0 -17 0zM823.4 616.65 a8.5 8.5 0 1 0 17 0 a8.5 8.5 0 1 0 -17 0zM749.78 659.15 a8.5 8.5 0 1 0 17 0 a8.5 8.5 0 1 0 -17 0zM897.01 -20.85 a8.5 8.5 0 1 0 17 0 a8.5 8.5 0 1 0 -17 0zM970.63 21.65 a8.5 8.5 0 1 0 17 0 a8.5 8.5 0 1 0 -17 0zM970.63 106.65 a8.5 8.5 0 1 0 17 0 a8.5 8.5 0 1 0 -17 0zM897.01 149.15 a8.5 8.5 0 1 0 17 0 a8.5 8.5 0 1 0 -17 0zM823.4 106.65 a8.5 8.5 0 1 0 17 0 a8.5 8.5 0 1 0 -17 0zM823.4 21.65 a8.5 8.5 0 1 0 17 0 a8.5 8.5 0 1 0 -17 0zM1044.24 149.15 a8.5 8.5 0 1 0 17 0 a8.5 8.5 0 1 0 -17 0zM1044.24 234.15 a8.5 8.5 0 1 0 17 0 a8.5 8.5 0 1 0 -17 0zM970.63 276.65 a8.5 8.5 0 1 0 17 0 a8.5 8.5 0 1 0 -17 0zM897.01 234.15 a8.5 8.5 0 1 0 17 0 a8.5 8.5 0 1 0 -17 0zM970.63 361.65 a8.5 8.5 0 1 0 17 0 a8.5 8.5 0 1 0 -17 0zM897.01 404.15 a8.5 8.5 0 1 0 17 0 a8.5 8.5 0 1 0 -17 0zM1044.24 404.15 a8.5 8.5 0 1 0 17 0 a8.5 8.5 0 1 0 -17 0zM1044.24 489.15 a8.5 8.5 0 1 0 17 0 a8.5 8.5 0 1 0 -17 0zM970.63 531.65 a8.5 8.5 0 1 0 17 0 a8.5 8.5 0 1 0 -17 0zM897.01 489.15 a8.5 8.5 0 1 0 17 0 a8.5 8.5 0 1 0 -17 0zM1117.85 276.65 a8.5 8.5 0 1 0 17 0 a8.5 8.5 0 1 0 -17 0zM1117.85 361.65 a8.5 8.5 0 1 0 17 0 a8.5 8.5 0 1 0 -17 0zM1117.85 531.65 a8.5 8.5 0 1 0 17 0 a8.5 8.5 0 1 0 -17 0zM1117.85 616.65 a8.5 8.5 0 1 0 17 0 a8.5 8.5 0 1 0 -17 0zM1044.24 659.15 a8.5 8.5 0 1 0 17 0 a8.5 8.5 0 1 0 -17 0zM970.63 616.65 a8.5 8.5 0 1 0 17 0 a8.5 8.5 0 1 0 -17 0zM1191.47 234.15 a8.5 8.5 0 1 0 17 0 a8.5 8.5 0 1 0 -17 0zM1265.08 276.65 a8.5 8.5 0 1 0 17 0 a8.5 8.5 0 1 0 -17 0zM1265.08 361.65 a8.5 8.5 0 1 0 17 0 a8.5 8.5 0 1 0 -17 0zM1191.47 404.15 a8.5 8.5 0 1 0 17 0 a8.5 8.5 0 1 0 -17 0zM1338.7 404.15 a8.5 8.5 0 1 0 17 0 a8.5 8.5 0 1 0 -17 0zM1338.7 489.15 a8.5 8.5 0 1 0 17 0 a8.5 8.5 0 1 0 -17 0zM1265.08 531.65 a8.5 8.5 0 1 0 17 0 a8.5 8.5 0 1 0 -17 0zM1191.47 489.15 a8.5 8.5 0 1 0 17 0 a8.5 8.5 0 1 0 -17 0zM1265.08 616.65 a8.5 8.5 0 1 0 17 0 a8.5 8.5 0 1 0 -17 0zM1191.47 659.15 a8.5 8.5 0 1 0 17 0 a8.5 8.5 0 1 0 -17 0zM1412.31 361.65 a8.5 8.5 0 1 0 17 0 a8.5 8.5 0 1 0 -17 0zM1485.93 404.15 a8.5 8.5 0 1 0 17 0 a8.5 8.5 0 1 0 -17 0zM1485.93 489.15 a8.5 8.5 0 1 0 17 0 a8.5 8.5 0 1 0 -17 0zM1412.31 531.65 a8.5 8.5 0 1 0 17 0 a8.5 8.5 0 1 0 -17 0zM1412.31 616.65 a8.5 8.5 0 1 0 17 0 a8.5 8.5 0 1 0 -17 0zM1338.7 659.15 a8.5 8.5 0 1 0 17 0 a8.5 8.5 0 1 0 -17 0z" fill="rgba(66, 68, 90, 1)"></path><path d="M2.8 -26.47L64.29 9.03L64.29 80.03L2.8 115.53L-58.69 80.03L-58.69 9.03zM2.8 399.53L64.29 435.03L64.29 506.03L2.8 541.53L-58.69 506.03L-58.69 435.03zM64.29 506.03L125.78 541.53L125.78 612.53L64.29 648.03L2.8 612.53L2.8 541.53zM187.27 80.03L248.76 115.53L248.76 186.53L187.27 222.03L125.78 186.53L125.78 115.53zM187.27 506.03L248.76 541.53L248.76 612.53L187.27 648.03L125.78 612.53L125.78 541.53zM310.25 80.03L371.74 115.53L371.74 186.53L310.25 222.03L248.76 186.53L248.76 115.53zM310.25 293.03L371.74 328.53L371.74 399.53L310.25 435.03L248.76 399.53L248.76 328.53zM248.76 399.53L310.25 435.03L310.25 506.03L248.76 541.53L187.27 506.03L187.27 435.03zM371.74 186.53L433.23 222.03L433.23 293.03L371.74 328.53L310.25 293.03L310.25 222.03zM617.7 186.53L679.19 222.03L679.19 293.03L617.7 328.53L556.21 293.03L556.21 222.03zM802.16 80.03L863.65 115.53L863.65 186.53L802.16 222.03L740.67 186.53L740.67 115.53zM740.67 399.53L802.16 435.03L802.16 506.03L740.67 541.53L679.19 506.03L679.19 435.03zM863.65 -26.47L925.14 9.03L925.14 80.03L863.65 115.53L802.16 80.03L802.16 9.03zM863.65 186.53L925.14 222.03L925.14 293.03L863.65 328.53L802.16 293.03L802.16 222.03zM863.65 399.53L925.14 435.03L925.14 506.03L863.65 541.53L802.16 506.03L802.16 435.03zM925.14 506.03L986.63 541.53L986.63 612.53L925.14 648.03L863.65 612.53L863.65 541.53zM986.63 186.53L1048.12 222.03L1048.12 293.03L986.63 328.53L925.14 293.03L925.14 222.03zM1171.1 80.03L1232.59 115.53L1232.59 186.53L1171.1 222.03L1109.61 186.53L1109.61 115.53zM1109.61 186.53L1171.1 222.03L1171.1 293.03L1109.61 328.53L1048.12 293.03L1048.12 222.03zM1171.1 506.03L1232.59 541.53L1232.59 612.53L1171.1 648.03L1109.61 612.53L1109.61 541.53zM1232.59 -26.47L1294.08 9.03L1294.08 80.03L1232.59 115.53L1171.1 80.03L1171.1 9.03zM1294.08 80.03L1355.57 115.53L1355.57 186.53L1294.08 222.03L1232.59 186.53L1232.59 115.53zM1294.08 293.03L1355.57 328.53L1355.57 399.53L1294.08 435.03L1232.59 399.53L1232.59 328.53zM1232.59 399.53L1294.08 435.03L1294.08 506.03L1232.59 541.53L1171.1 506.03L1171.1 435.03zM1355.57 -26.47L1417.06 9.03L1417.06 80.03L1355.57 115.53L1294.08 80.03L1294.08 9.03z" stroke="url(&quot;#SvgjsLinearGradient1823&quot;)" stroke-width="2"></path><path d="M-4.3 -26.47 a7.1 7.1 0 1 0 14.2 0 a7.1 7.1 0 1 0 -14.2 0zM57.19 9.03 a7.1 7.1 0 1 0 14.2 0 a7.1 7.1 0 1 0 -14.2 0zM57.19 80.03 a7.1 7.1 0 1 0 14.2 0 a7.1 7.1 0 1 0 -14.2 0zM-4.3 115.53 a7.1 7.1 0 1 0 14.2 0 a7.1 7.1 0 1 0 -14.2 0zM-65.79 80.03 a7.1 7.1 0 1 0 14.2 0 a7.1 7.1 0 1 0 -14.2 0zM-65.79 9.03 a7.1 7.1 0 1 0 14.2 0 a7.1 7.1 0 1 0 -14.2 0zM-4.3 399.53 a7.1 7.1 0 1 0 14.2 0 a7.1 7.1 0 1 0 -14.2 0zM57.19 435.03 a7.1 7.1 0 1 0 14.2 0 a7.1 7.1 0 1 0 -14.2 0zM57.19 506.03 a7.1 7.1 0 1 0 14.2 0 a7.1 7.1 0 1 0 -14.2 0zM-4.3 541.53 a7.1 7.1 0 1 0 14.2 0 a7.1 7.1 0 1 0 -14.2 0zM-65.79 506.03 a7.1 7.1 0 1 0 14.2 0 a7.1 7.1 0 1 0 -14.2 0zM-65.79 435.03 a7.1 7.1 0 1 0 14.2 0 a7.1 7.1 0 1 0 -14.2 0zM118.68 541.53 a7.1 7.1 0 1 0 14.2 0 a7.1 7.1 0 1 0 -14.2 0zM118.68 612.53 a7.1 7.1 0 1 0 14.2 0 a7.1 7.1 0 1 0 -14.2 0zM57.19 648.03 a7.1 7.1 0 1 0 14.2 0 a7.1 7.1 0 1 0 -14.2 0zM-4.3 612.53 a7.1 7.1 0 1 0 14.2 0 a7.1 7.1 0 1 0 -14.2 0zM180.17 80.03 a7.1 7.1 0 1 0 14.2 0 a7.1 7.1 0 1 0 -14.2 0zM241.66 115.53 a7.1 7.1 0 1 0 14.2 0 a7.1 7.1 0 1 0 -14.2 0zM241.66 186.53 a7.1 7.1 0 1 0 14.2 0 a7.1 7.1 0 1 0 -14.2 0zM180.17 222.03 a7.1 7.1 0 1 0 14.2 0 a7.1 7.1 0 1 0 -14.2 0zM118.68 186.53 a7.1 7.1 0 1 0 14.2 0 a7.1 7.1 0 1 0 -14.2 0zM118.68 115.53 a7.1 7.1 0 1 0 14.2 0 a7.1 7.1 0 1 0 -14.2 0zM180.17 506.03 a7.1 7.1 0 1 0 14.2 0 a7.1 7.1 0 1 0 -14.2 0zM241.66 541.53 a7.1 7.1 0 1 0 14.2 0 a7.1 7.1 0 1 0 -14.2 0zM241.66 612.53 a7.1 7.1 0 1 0 14.2 0 a7.1 7.1 0 1 0 -14.2 0zM180.17 648.03 a7.1 7.1 0 1 0 14.2 0 a7.1 7.1 0 1 0 -14.2 0zM303.15 80.03 a7.1 7.1 0 1 0 14.2 0 a7.1 7.1 0 1 0 -14.2 0zM364.64 115.53 a7.1 7.1 0 1 0 14.2 0 a7.1 7.1 0 1 0 -14.2 0zM364.64 186.53 a7.1 7.1 0 1 0 14.2 0 a7.1 7.1 0 1 0 -14.2 0zM303.15 222.03 a7.1 7.1 0 1 0 14.2 0 a7.1 7.1 0 1 0 -14.2 0zM303.15 293.03 a7.1 7.1 0 1 0 14.2 0 a7.1 7.1 0 1 0 -14.2 0zM364.64 328.53 a7.1 7.1 0 1 0 14.2 0 a7.1 7.1 0 1 0 -14.2 0zM364.64 399.53 a7.1 7.1 0 1 0 14.2 0 a7.1 7.1 0 1 0 -14.2 0zM303.15 435.03 a7.1 7.1 0 1 0 14.2 0 a7.1 7.1 0 1 0 -14.2 0zM241.66 399.53 a7.1 7.1 0 1 0 14.2 0 a7.1 7.1 0 1 0 -14.2 0zM241.66 328.53 a7.1 7.1 0 1 0 14.2 0 a7.1 7.1 0 1 0 -14.2 0zM303.15 506.03 a7.1 7.1 0 1 0 14.2 0 a7.1 7.1 0 1 0 -14.2 0zM180.17 435.03 a7.1 7.1 0 1 0 14.2 0 a7.1 7.1 0 1 0 -14.2 0zM426.13 222.03 a7.1 7.1 0 1 0 14.2 0 a7.1 7.1 0 1 0 -14.2 0zM426.13 293.03 a7.1 7.1 0 1 0 14.2 0 a7.1 7.1 0 1 0 -14.2 0zM610.6 186.53 a7.1 7.1 0 1 0 14.2 0 a7.1 7.1 0 1 0 -14.2 0zM672.09 222.03 a7.1 7.1 0 1 0 14.2 0 a7.1 7.1 0 1 0 -14.2 0zM672.09 293.03 a7.1 7.1 0 1 0 14.2 0 a7.1 7.1 0 1 0 -14.2 0zM610.6 328.53 a7.1 7.1 0 1 0 14.2 0 a7.1 7.1 0 1 0 -14.2 0zM549.11 293.03 a7.1 7.1 0 1 0 14.2 0 a7.1 7.1 0 1 0 -14.2 0zM549.11 222.03 a7.1 7.1 0 1 0 14.2 0 a7.1 7.1 0 1 0 -14.2 0zM795.06 80.03 a7.1 7.1 0 1 0 14.2 0 a7.1 7.1 0 1 0 -14.2 0zM856.55 115.53 a7.1 7.1 0 1 0 14.2 0 a7.1 7.1 0 1 0 -14.2 0zM856.55 186.53 a7.1 7.1 0 1 0 14.2 0 a7.1 7.1 0 1 0 -14.2 0zM795.06 222.03 a7.1 7.1 0 1 0 14.2 0 a7.1 7.1 0 1 0 -14.2 0zM733.57 186.53 a7.1 7.1 0 1 0 14.2 0 a7.1 7.1 0 1 0 -14.2 0zM733.57 115.53 a7.1 7.1 0 1 0 14.2 0 a7.1 7.1 0 1 0 -14.2 0zM733.57 399.53 a7.1 7.1 0 1 0 14.2 0 a7.1 7.1 0 1 0 -14.2 0zM795.06 435.03 a7.1 7.1 0 1 0 14.2 0 a7.1 7.1 0 1 0 -14.2 0zM795.06 506.03 a7.1 7.1 0 1 0 14.2 0 a7.1 7.1 0 1 0 -14.2 0zM733.57 541.53 a7.1 7.1 0 1 0 14.2 0 a7.1 7.1 0 1 0 -14.2 0zM672.09 506.03 a7.1 7.1 0 1 0 14.2 0 a7.1 7.1 0 1 0 -14.2 0zM672.09 435.03 a7.1 7.1 0 1 0 14.2 0 a7.1 7.1 0 1 0 -14.2 0zM856.55 -26.47 a7.1 7.1 0 1 0 14.2 0 a7.1 7.1 0 1 0 -14.2 0zM918.04 9.03 a7.1 7.1 0 1 0 14.2 0 a7.1 7.1 0 1 0 -14.2 0zM918.04 80.03 a7.1 7.1 0 1 0 14.2 0 a7.1 7.1 0 1 0 -14.2 0zM795.06 9.03 a7.1 7.1 0 1 0 14.2 0 a7.1 7.1 0 1 0 -14.2 0zM918.04 222.03 a7.1 7.1 0 1 0 14.2 0 a7.1 7.1 0 1 0 -14.2 0zM918.04 293.03 a7.1 7.1 0 1 0 14.2 0 a7.1 7.1 0 1 0 -14.2 0zM856.55 328.53 a7.1 7.1 0 1 0 14.2 0 a7.1 7.1 0 1 0 -14.2 0zM795.06 293.03 a7.1 7.1 0 1 0 14.2 0 a7.1 7.1 0 1 0 -14.2 0zM856.55 399.53 a7.1 7.1 0 1 0 14.2 0 a7.1 7.1 0 1 0 -14.2 0zM918.04 435.03 a7.1 7.1 0 1 0 14.2 0 a7.1 7.1 0 1 0 -14.2 0zM918.04 506.03 a7.1 7.1 0 1 0 14.2 0 a7.1 7.1 0 1 0 -14.2 0zM856.55 541.53 a7.1 7.1 0 1 0 14.2 0 a7.1 7.1 0 1 0 -14.2 0zM979.53 541.53 a7.1 7.1 0 1 0 14.2 0 a7.1 7.1 0 1 0 -14.2 0zM979.53 612.53 a7.1 7.1 0 1 0 14.2 0 a7.1 7.1 0 1 0 -14.2 0zM918.04 648.03 a7.1 7.1 0 1 0 14.2 0 a7.1 7.1 0 1 0 -14.2 0zM856.55 612.53 a7.1 7.1 0 1 0 14.2 0 a7.1 7.1 0 1 0 -14.2 0zM979.53 186.53 a7.1 7.1 0 1 0 14.2 0 a7.1 7.1 0 1 0 -14.2 0zM1041.02 222.03 a7.1 7.1 0 1 0 14.2 0 a7.1 7.1 0 1 0 -14.2 0zM1041.02 293.03 a7.1 7.1 0 1 0 14.2 0 a7.1 7.1 0 1 0 -14.2 0zM979.53 328.53 a7.1 7.1 0 1 0 14.2 0 a7.1 7.1 0 1 0 -14.2 0zM1164 80.03 a7.1 7.1 0 1 0 14.2 0 a7.1 7.1 0 1 0 -14.2 0zM1225.49 115.53 a7.1 7.1 0 1 0 14.2 0 a7.1 7.1 0 1 0 -14.2 0zM1225.49 186.53 a7.1 7.1 0 1 0 14.2 0 a7.1 7.1 0 1 0 -14.2 0zM1164 222.03 a7.1 7.1 0 1 0 14.2 0 a7.1 7.1 0 1 0 -14.2 0zM1102.51 186.53 a7.1 7.1 0 1 0 14.2 0 a7.1 7.1 0 1 0 -14.2 0zM1102.51 115.53 a7.1 7.1 0 1 0 14.2 0 a7.1 7.1 0 1 0 -14.2 0zM1164 293.03 a7.1 7.1 0 1 0 14.2 0 a7.1 7.1 0 1 0 -14.2 0zM1102.51 328.53 a7.1 7.1 0 1 0 14.2 0 a7.1 7.1 0 1 0 -14.2 0zM1164 506.03 a7.1 7.1 0 1 0 14.2 0 a7.1 7.1 0 1 0 -14.2 0zM1225.49 541.53 a7.1 7.1 0 1 0 14.2 0 a7.1 7.1 0 1 0 -14.2 0zM1225.49 612.53 a7.1 7.1 0 1 0 14.2 0 a7.1 7.1 0 1 0 -14.2 0zM1164 648.03 a7.1 7.1 0 1 0 14.2 0 a7.1 7.1 0 1 0 -14.2 0zM1102.51 612.53 a7.1 7.1 0 1 0 14.2 0 a7.1 7.1 0 1 0 -14.2 0zM1102.51 541.53 a7.1 7.1 0 1 0 14.2 0 a7.1 7.1 0 1 0 -14.2 0zM1225.49 -26.47 a7.1 7.1 0 1 0 14.2 0 a7.1 7.1 0 1 0 -14.2 0zM1286.98 9.03 a7.1 7.1 0 1 0 14.2 0 a7.1 7.1 0 1 0 -14.2 0zM1286.98 80.03 a7.1 7.1 0 1 0 14.2 0 a7.1 7.1 0 1 0 -14.2 0zM1164 9.03 a7.1 7.1 0 1 0 14.2 0 a7.1 7.1 0 1 0 -14.2 0zM1348.47 115.53 a7.1 7.1 0 1 0 14.2 0 a7.1 7.1 0 1 0 -14.2 0zM1348.47 186.53 a7.1 7.1 0 1 0 14.2 0 a7.1 7.1 0 1 0 -14.2 0zM1286.98 222.03 a7.1 7.1 0 1 0 14.2 0 a7.1 7.1 0 1 0 -14.2 0zM1286.98 293.03 a7.1 7.1 0 1 0 14.2 0 a7.1 7.1 0 1 0 -14.2 0zM1348.47 328.53 a7.1 7.1 0 1 0 14.2 0 a7.1 7.1 0 1 0 -14.2 0zM1348.47 399.53 a7.1 7.1 0 1 0 14.2 0 a7.1 7.1 0 1 0 -14.2 0zM1286.98 435.03 a7.1 7.1 0 1 0 14.2 0 a7.1 7.1 0 1 0 -14.2 0zM1225.49 399.53 a7.1 7.1 0 1 0 14.2 0 a7.1 7.1 0 1 0 -14.2 0zM1225.49 328.53 a7.1 7.1 0 1 0 14.2 0 a7.1 7.1 0 1 0 -14.2 0zM1286.98 506.03 a7.1 7.1 0 1 0 14.2 0 a7.1 7.1 0 1 0 -14.2 0zM1164 435.03 a7.1 7.1 0 1 0 14.2 0 a7.1 7.1 0 1 0 -14.2 0zM1348.47 -26.47 a7.1 7.1 0 1 0 14.2 0 a7.1 7.1 0 1 0 -14.2 0zM1409.96 9.03 a7.1 7.1 0 1 0 14.2 0 a7.1 7.1 0 1 0 -14.2 0zM1409.96 80.03 a7.1 7.1 0 1 0 14.2 0 a7.1 7.1 0 1 0 -14.2 0z" fill="url(&quot;#SvgjsLinearGradient1823&quot;)"></path><path d="M64.39 89.88L116.36 119.88L116.36 179.88L64.39 209.88L12.43 179.88L12.43 119.88zM12.43 179.88L64.39 209.88L64.39 269.88L12.43 299.88L-39.53 269.88L-39.53 209.88zM64.39 269.88L116.36 299.88L116.36 359.88L64.39 389.88L12.43 359.88L12.43 299.88zM12.43 539.88L64.39 569.88L64.39 629.88L12.43 659.88L-39.53 629.88L-39.53 569.88zM168.32 89.88L220.28 119.88L220.28 179.88L168.32 209.88L116.36 179.88L116.36 119.88zM168.32 269.88L220.28 299.88L220.28 359.88L168.32 389.88L116.36 359.88L116.36 299.88zM272.25 89.88L324.21 119.88L324.21 179.88L272.25 209.88L220.28 179.88L220.28 119.88zM220.28 359.88L272.25 389.88L272.25 449.88L220.28 479.88L168.32 449.88L168.32 389.88zM324.21 -0.12L376.17 29.88L376.17 89.88L324.21 119.88L272.25 89.88L272.25 29.88zM324.21 359.88L376.17 389.88L376.17 449.88L324.21 479.88L272.25 449.88L272.25 389.88zM324.21 539.88L376.17 569.88L376.17 629.88L324.21 659.88L272.25 629.88L272.25 569.88zM532.06 179.88L584.02 209.88L584.02 269.88L532.06 299.88L480.1 269.88L480.1 209.88zM843.84 -0.12L895.8 29.88L895.8 89.88L843.84 119.88L791.88 89.88L791.88 29.88zM895.8 269.88L947.76 299.88L947.76 359.88L895.8 389.88L843.84 359.88L843.84 299.88zM947.76 -0.12L999.73 29.88L999.73 89.88L947.76 119.88L895.8 89.88L895.8 29.88zM947.76 179.88L999.73 209.88L999.73 269.88L947.76 299.88L895.8 269.88L895.8 209.88zM999.73 449.88L1051.69 479.88L1051.69 539.88L999.73 569.88L947.76 539.88L947.76 479.88zM947.76 539.88L999.73 569.88L999.73 629.88L947.76 659.88L895.8 629.88L895.8 569.88zM1051.69 179.88L1103.65 209.88L1103.65 269.88L1051.69 299.88L999.73 269.88L999.73 209.88zM1207.58 89.88L1259.54 119.88L1259.54 179.88L1207.58 209.88L1155.62 179.88L1155.62 119.88zM1207.58 449.88L1259.54 479.88L1259.54 539.88L1207.58 569.88L1155.62 539.88L1155.62 479.88zM1155.62 539.88L1207.58 569.88L1207.58 629.88L1155.62 659.88L1103.65 629.88L1103.65 569.88zM1259.54 -0.12L1311.51 29.88L1311.51 89.88L1259.54 119.88L1207.58 89.88L1207.58 29.88zM1363.47 -0.12L1415.43 29.88L1415.43 89.88L1363.47 119.88L1311.51 89.88L1311.51 29.88z" stroke="rgba(6, 80, 156, 0.93)" stroke-width="2"></path></g><defs><mask id="SvgjsMask1822"><rect width="1411" height="550" fill="#ffffff"></rect></mask><linearGradient x1="215.31859999999998" y1="-215.27" x2="1195.6814" y2="765.27" gradientUnits="userSpaceOnUse" id="SvgjsLinearGradient1823"><stop stop-color="rgba(158, 0, 129, 1)" offset="0"></stop><stop stop-color="rgba(11, 88, 165, 1)" offset="1"></stop></linearGradient></defs></svg>