<svg xmlns="http://www.w3.org/2000/svg" version="1.1" xmlns:xlink="http://www.w3.org/1999/xlink" xmlns:svgjs="http://svgjs.dev/svgjs" width="1440" height="560" preserveAspectRatio="none" viewBox="0 0 1440 560"><g mask="url(&quot;#SvgjsMask1634&quot;)" fill="none"><path d="M97.63 251.05L159.12 286.55L159.12 357.55L97.63 393.05L36.14 357.55L36.14 286.55zM343.59 464.05L405.08 499.55L405.08 570.55L343.59 606.05L282.1 570.55L282.1 499.55zM466.57 38.05L528.06 73.55L528.06 144.55L466.57 180.05L405.08 144.55L405.08 73.55zM589.55 38.05L651.04 73.55L651.04 144.55L589.55 180.05L528.06 144.55L528.06 73.55zM774.01 144.55L835.5 180.05L835.5 251.05L774.01 286.55L712.53 251.05L712.53 180.05zM1081.46 38.05L1142.95 73.55L1142.95 144.55L1081.46 180.05L1019.97 144.55L1019.97 73.55zM1081.46 464.05L1142.95 499.55L1142.95 570.55L1081.46 606.05L1019.97 570.55L1019.97 499.55z" stroke="url(&quot;#SvgjsLinearGradient1635&quot;)" stroke-width="2"></path><path d="M90.53 251.05 a7.1 7.1 0 1 0 14.2 0 a7.1 7.1 0 1 0 -14.2 0zM152.02 286.55 a7.1 7.1 0 1 0 14.2 0 a7.1 7.1 0 1 0 -14.2 0zM152.02 357.55 a7.1 7.1 0 1 0 14.2 0 a7.1 7.1 0 1 0 -14.2 0zM90.53 393.05 a7.1 7.1 0 1 0 14.2 0 a7.1 7.1 0 1 0 -14.2 0zM29.04 357.55 a7.1 7.1 0 1 0 14.2 0 a7.1 7.1 0 1 0 -14.2 0zM29.04 286.55 a7.1 7.1 0 1 0 14.2 0 a7.1 7.1 0 1 0 -14.2 0zM336.49 464.05 a7.1 7.1 0 1 0 14.2 0 a7.1 7.1 0 1 0 -14.2 0zM397.98 499.55 a7.1 7.1 0 1 0 14.2 0 a7.1 7.1 0 1 0 -14.2 0zM397.98 570.55 a7.1 7.1 0 1 0 14.2 0 a7.1 7.1 0 1 0 -14.2 0zM336.49 606.05 a7.1 7.1 0 1 0 14.2 0 a7.1 7.1 0 1 0 -14.2 0zM275 570.55 a7.1 7.1 0 1 0 14.2 0 a7.1 7.1 0 1 0 -14.2 0zM275 499.55 a7.1 7.1 0 1 0 14.2 0 a7.1 7.1 0 1 0 -14.2 0zM459.47 38.05 a7.1 7.1 0 1 0 14.2 0 a7.1 7.1 0 1 0 -14.2 0zM520.96 73.55 a7.1 7.1 0 1 0 14.2 0 a7.1 7.1 0 1 0 -14.2 0zM520.96 144.55 a7.1 7.1 0 1 0 14.2 0 a7.1 7.1 0 1 0 -14.2 0zM459.47 180.05 a7.1 7.1 0 1 0 14.2 0 a7.1 7.1 0 1 0 -14.2 0zM397.98 144.55 a7.1 7.1 0 1 0 14.2 0 a7.1 7.1 0 1 0 -14.2 0zM397.98 73.55 a7.1 7.1 0 1 0 14.2 0 a7.1 7.1 0 1 0 -14.2 0zM582.45 38.05 a7.1 7.1 0 1 0 14.2 0 a7.1 7.1 0 1 0 -14.2 0zM643.94 73.55 a7.1 7.1 0 1 0 14.2 0 a7.1 7.1 0 1 0 -14.2 0zM643.94 144.55 a7.1 7.1 0 1 0 14.2 0 a7.1 7.1 0 1 0 -14.2 0zM582.45 180.05 a7.1 7.1 0 1 0 14.2 0 a7.1 7.1 0 1 0 -14.2 0zM766.91 144.55 a7.1 7.1 0 1 0 14.2 0 a7.1 7.1 0 1 0 -14.2 0zM828.4 180.05 a7.1 7.1 0 1 0 14.2 0 a7.1 7.1 0 1 0 -14.2 0zM828.4 251.05 a7.1 7.1 0 1 0 14.2 0 a7.1 7.1 0 1 0 -14.2 0zM766.91 286.55 a7.1 7.1 0 1 0 14.2 0 a7.1 7.1 0 1 0 -14.2 0zM705.43 251.05 a7.1 7.1 0 1 0 14.2 0 a7.1 7.1 0 1 0 -14.2 0zM705.43 180.05 a7.1 7.1 0 1 0 14.2 0 a7.1 7.1 0 1 0 -14.2 0zM1074.36 38.05 a7.1 7.1 0 1 0 14.2 0 a7.1 7.1 0 1 0 -14.2 0zM1135.85 73.55 a7.1 7.1 0 1 0 14.2 0 a7.1 7.1 0 1 0 -14.2 0zM1135.85 144.55 a7.1 7.1 0 1 0 14.2 0 a7.1 7.1 0 1 0 -14.2 0zM1074.36 180.05 a7.1 7.1 0 1 0 14.2 0 a7.1 7.1 0 1 0 -14.2 0zM1012.87 144.55 a7.1 7.1 0 1 0 14.2 0 a7.1 7.1 0 1 0 -14.2 0zM1012.87 73.55 a7.1 7.1 0 1 0 14.2 0 a7.1 7.1 0 1 0 -14.2 0zM1074.36 464.05 a7.1 7.1 0 1 0 14.2 0 a7.1 7.1 0 1 0 -14.2 0zM1135.85 499.55 a7.1 7.1 0 1 0 14.2 0 a7.1 7.1 0 1 0 -14.2 0zM1135.85 570.55 a7.1 7.1 0 1 0 14.2 0 a7.1 7.1 0 1 0 -14.2 0zM1074.36 606.05 a7.1 7.1 0 1 0 14.2 0 a7.1 7.1 0 1 0 -14.2 0zM1012.87 570.55 a7.1 7.1 0 1 0 14.2 0 a7.1 7.1 0 1 0 -14.2 0zM1012.87 499.55 a7.1 7.1 0 1 0 14.2 0 a7.1 7.1 0 1 0 -14.2 0z" fill="url(&quot;#SvgjsLinearGradient1635&quot;)"></path><path d="M35.21 -4.06L87.17 25.94L87.17 85.94L35.21 115.94L-16.75 85.94L-16.75 25.94zM87.17 85.94L139.14 115.94L139.14 175.94L87.17 205.94L35.21 175.94L35.21 115.94zM35.21 175.94L87.17 205.94L87.17 265.94L35.21 295.94L-16.75 265.94L-16.75 205.94zM35.21 355.94L87.17 385.94L87.17 445.94L35.21 475.94L-16.75 445.94L-16.75 385.94zM191.1 85.94L243.06 115.94L243.06 175.94L191.1 205.94L139.14 175.94L139.14 115.94zM295.02 85.94L346.99 115.94L346.99 175.94L295.02 205.94L243.06 175.94L243.06 115.94zM295.02 265.94L346.99 295.94L346.99 355.94L295.02 385.94L243.06 355.94L243.06 295.94zM346.99 -4.06L398.95 25.94L398.95 85.94L346.99 115.94L295.02 85.94L295.02 25.94zM398.95 85.94L450.91 115.94L450.91 175.94L398.95 205.94L346.99 175.94L346.99 115.94zM346.99 355.94L398.95 385.94L398.95 445.94L346.99 475.94L295.02 445.94L295.02 385.94zM450.91 -4.06L502.88 25.94L502.88 85.94L450.91 115.94L398.95 85.94L398.95 25.94zM502.88 265.94L554.84 295.94L554.84 355.94L502.88 385.94L450.91 355.94L450.91 295.94zM450.91 355.94L502.88 385.94L502.88 445.94L450.91 475.94L398.95 445.94L398.95 385.94zM554.84 -4.06L606.8 25.94L606.8 85.94L554.84 115.94L502.88 85.94L502.88 25.94zM606.8 85.94L658.77 115.94L658.77 175.94L606.8 205.94L554.84 175.94L554.84 115.94zM554.84 175.94L606.8 205.94L606.8 265.94L554.84 295.94L502.88 265.94L502.88 205.94zM606.8 265.94L658.77 295.94L658.77 355.94L606.8 385.94L554.84 355.94L554.84 295.94zM658.77 -4.06L710.73 25.94L710.73 85.94L658.77 115.94L606.8 85.94L606.8 25.94zM762.69 -4.06L814.65 25.94L814.65 85.94L762.69 115.94L710.73 85.94L710.73 25.94zM814.65 265.94L866.62 295.94L866.62 355.94L814.65 385.94L762.69 355.94L762.69 295.94zM866.62 -4.06L918.58 25.94L918.58 85.94L866.62 115.94L814.66 85.94L814.66 25.94zM866.62 355.94L918.58 385.94L918.58 445.94L866.62 475.94L814.66 445.94L814.66 385.94zM1022.51 85.94L1074.47 115.94L1074.47 175.94L1022.51 205.94L970.54 175.94L970.54 115.94zM1022.51 265.94L1074.47 295.94L1074.47 355.94L1022.51 385.94L970.54 355.94L970.54 295.94zM1126.43 265.94L1178.4 295.94L1178.4 355.94L1126.43 385.94L1074.47 355.94L1074.47 295.94zM1074.47 535.94L1126.43 565.94L1126.43 625.94L1074.47 655.94L1022.51 625.94L1022.51 565.94zM1230.36 85.94L1282.32 115.94L1282.32 175.94L1230.36 205.94L1178.4 175.94L1178.4 115.94zM1178.4 175.94L1230.36 205.94L1230.36 265.94L1178.4 295.94L1126.43 265.94L1126.43 205.94zM1230.36 445.94L1282.32 475.94L1282.32 535.94L1230.36 565.94L1178.4 535.94L1178.4 475.94zM1386.25 535.94L1438.21 565.94L1438.21 625.94L1386.25 655.94L1334.29 625.94L1334.29 565.94z" stroke="rgba(6, 80, 156, 0.93)" stroke-width="2"></path></g><defs><mask id="SvgjsMask1634"><rect width="1440" height="560" fill="#ffffff"></rect></mask><linearGradient x1="220.03199999999998" y1="-220.02399999999997" x2="1219.9679999999998" y2="780.024" gradientUnits="userSpaceOnUse" id="SvgjsLinearGradient1635"><stop stop-color="rgba(158, 0, 129, 1)" offset="0"></stop><stop stop-color="rgba(11, 88, 165, 1)" offset="1"></stop></linearGradient></defs></svg>